<svg width="135" height="40" viewBox="0 0 135 40" fill="none" xmlns="http://www.w3.org/2000/svg">
<g clip-path="url(#clip0_237_1172)">
<path d="M130.197 40H4.729C2.122 40 0 37.872 0 35.267V4.726C0 2.12 2.122 0 4.729 0H130.197C132.803 0 135 2.12 135 4.726V35.267C135 37.872 132.803 40 130.197 40Z" fill="#A6A6A6"/>
<path d="M134.032 35.268C134.032 37.384 132.318 39.098 130.198 39.098H4.729C2.61 39.098 0.89 37.384 0.89 35.268V4.72501C0.89 2.61001 2.61 0.890015 4.729 0.890015H130.197C132.318 0.890015 134.031 2.61001 134.031 4.72501L134.032 35.268Z" fill="black"/>
<path d="M30.128 19.7841C30.099 16.5611 32.767 14.9931 32.889 14.9201C31.378 12.7171 29.036 12.4161 28.213 12.3921C26.246 12.1851 24.338 13.5691 23.336 13.5691C22.314 13.5691 20.771 12.4121 19.108 12.4461C16.968 12.4791 14.966 13.7181 13.868 15.6421C11.602 19.5651 13.292 25.3301 15.463 28.5011C16.549 30.0541 17.818 31.7881 19.479 31.7271C21.104 31.6601 21.711 30.6911 23.672 30.6911C25.615 30.6911 26.185 31.7271 27.879 31.6881C29.623 31.6601 30.721 30.1281 31.769 28.5611C33.024 26.7811 33.528 25.0281 33.548 24.9381C33.507 24.9241 30.161 23.6471 30.128 19.7841Z" fill="white"/>
<path d="M26.928 10.306C27.802 9.21304 28.4 7.72604 28.234 6.21704C26.969 6.27304 25.387 7.09204 24.476 8.16104C23.67 9.10304 22.95 10.647 23.136 12.099C24.557 12.205 26.016 11.382 26.928 10.306Z" fill="white"/>
<path d="M53.645 31.5039H51.374L50.13 27.5949H45.806L44.621 31.5039H42.41L46.694 18.1959H49.34L53.645 31.5039ZM49.755 25.9549L48.63 22.4799C48.511 22.1249 48.288 21.2889 47.959 19.9729H47.919C47.788 20.5389 47.577 21.3749 47.287 22.4799L46.182 25.9549H49.755Z" fill="white"/>
<path d="M64.662 26.5879C64.662 28.2199 64.221 29.5099 63.339 30.4569C62.549 31.2999 61.568 31.7209 60.397 31.7209C59.133 31.7209 58.225 31.2669 57.672 30.3589H57.632V35.4139H55.5V25.0669C55.5 24.0409 55.473 22.9879 55.421 21.9079H57.296L57.415 23.4289H57.455C58.166 22.2829 59.245 21.7109 60.693 21.7109C61.825 21.7109 62.77 22.1579 63.526 23.0529C64.284 23.9489 64.662 25.1269 64.662 26.5879ZM62.49 26.6659C62.49 25.7319 62.28 24.9619 61.858 24.3559C61.397 23.7239 60.778 23.4079 60.002 23.4079C59.476 23.4079 58.998 23.5839 58.571 23.9309C58.143 24.2809 57.863 24.7379 57.732 25.3039C57.666 25.5679 57.633 25.7839 57.633 25.9539V27.5539C57.633 28.2519 57.847 28.8409 58.275 29.3219C58.703 29.8029 59.259 30.0429 59.943 30.0429C60.746 30.0429 61.371 29.7329 61.818 29.1149C62.266 28.4959 62.49 27.6799 62.49 26.6659Z" fill="white"/>
<path d="M75.699 26.5879C75.699 28.2199 75.258 29.5099 74.375 30.4569C73.586 31.2999 72.605 31.7209 71.434 31.7209C70.17 31.7209 69.262 31.2669 68.71 30.3589H68.67V35.4139H66.538V25.0669C66.538 24.0409 66.511 22.9879 66.459 21.9079H68.334L68.453 23.4289H68.493C69.203 22.2829 70.282 21.7109 71.731 21.7109C72.862 21.7109 73.807 22.1579 74.565 23.0529C75.32 23.9489 75.699 25.1269 75.699 26.5879ZM73.527 26.6659C73.527 25.7319 73.316 24.9619 72.894 24.3559C72.433 23.7239 71.816 23.4079 71.039 23.4079C70.512 23.4079 70.035 23.5839 69.607 23.9309C69.179 24.2809 68.9 24.7379 68.769 25.3039C68.704 25.5679 68.67 25.7839 68.67 25.9539V27.5539C68.67 28.2519 68.884 28.8409 69.31 29.3219C69.738 29.8019 70.294 30.0429 70.98 30.0429C71.783 30.0429 72.408 29.7329 72.855 29.1149C73.303 28.4959 73.527 27.6799 73.527 26.6659Z" fill="white"/>
<path d="M88.039 27.772C88.039 28.904 87.646 29.825 86.857 30.536C85.99 31.313 84.783 31.701 83.232 31.701C81.8 31.701 80.652 31.425 79.783 30.872L80.277 29.095C81.213 29.661 82.24 29.945 83.359 29.945C84.162 29.945 84.787 29.763 85.236 29.401C85.683 29.039 85.906 28.553 85.906 27.947C85.906 27.407 85.722 26.952 85.353 26.583C84.986 26.214 84.373 25.871 83.517 25.554C81.187 24.685 80.023 23.412 80.023 21.738C80.023 20.644 80.431 19.747 81.248 19.049C82.062 18.35 83.148 18.001 84.506 18.001C85.717 18.001 86.723 18.212 87.526 18.633L86.993 20.371C86.243 19.963 85.395 19.759 84.446 19.759C83.696 19.759 83.11 19.944 82.69 20.312C82.335 20.641 82.157 21.042 82.157 21.517C82.157 22.043 82.36 22.478 82.768 22.82C83.123 23.136 83.768 23.478 84.704 23.847C85.849 24.308 86.69 24.847 87.231 25.465C87.77 26.081 88.039 26.852 88.039 27.772Z" fill="white"/>
<path d="M95.088 23.508H92.738V28.167C92.738 29.352 93.152 29.944 93.982 29.944C94.363 29.944 94.679 29.911 94.929 29.845L94.988 31.464C94.568 31.621 94.015 31.7 93.33 31.7C92.488 31.7 91.83 31.443 91.355 30.93C90.882 30.416 90.644 29.554 90.644 28.343V23.506H89.244V21.906H90.644V20.149L92.738 19.517V21.906H95.088V23.508Z" fill="white"/>
<path d="M105.691 26.627C105.691 28.102 105.269 29.313 104.427 30.26C103.544 31.235 102.372 31.721 100.911 31.721C99.503 31.721 98.382 31.254 97.546 30.32C96.71 29.386 96.292 28.207 96.292 26.786C96.292 25.299 96.722 24.081 97.585 23.134C98.446 22.186 99.608 21.712 101.069 21.712C102.477 21.712 103.61 22.179 104.465 23.114C105.283 24.021 105.691 25.192 105.691 26.627ZM103.479 26.696C103.479 25.811 103.29 25.052 102.907 24.419C102.46 23.653 101.821 23.271 100.993 23.271C100.136 23.271 99.485 23.654 99.038 24.419C98.655 25.053 98.466 25.824 98.466 26.736C98.466 27.621 98.655 28.38 99.038 29.012C99.499 29.778 100.143 30.16 100.974 30.16C101.788 30.16 102.427 29.77 102.888 28.992C103.281 28.347 103.479 27.58 103.479 26.696Z" fill="white"/>
<path d="M112.621 23.7829C112.41 23.7439 112.185 23.7239 111.949 23.7239C111.199 23.7239 110.619 24.0069 110.211 24.5739C109.856 25.0739 109.678 25.7059 109.678 26.4689V31.5039H107.547L107.567 24.9299C107.567 23.8239 107.54 22.8169 107.487 21.9089H109.344L109.422 23.7449H109.481C109.706 23.1139 110.061 22.6059 110.547 22.2249C111.022 21.8819 111.535 21.7109 112.088 21.7109C112.285 21.7109 112.463 21.7249 112.621 21.7499V23.7829Z" fill="white"/>
<path d="M122.156 26.252C122.156 26.634 122.131 26.956 122.078 27.219H115.682C115.707 28.167 116.016 28.892 116.61 29.392C117.149 29.839 117.846 30.063 118.702 30.063C119.649 30.063 120.513 29.912 121.29 29.609L121.624 31.089C120.716 31.485 119.644 31.682 118.407 31.682C116.919 31.682 115.751 31.244 114.901 30.369C114.053 29.494 113.628 28.319 113.628 26.845C113.628 25.398 114.023 24.193 114.814 23.232C115.642 22.206 116.761 21.693 118.169 21.693C119.552 21.693 120.599 22.206 121.31 23.232C121.873 24.047 122.156 25.055 122.156 26.252ZM120.123 25.699C120.137 25.067 119.998 24.521 119.709 24.06C119.34 23.467 118.773 23.171 118.01 23.171C117.313 23.171 116.746 23.46 116.313 24.04C115.958 24.501 115.747 25.054 115.682 25.698H120.123V25.699Z" fill="white"/>
<path d="M49.05 10.0091C49.05 11.1861 48.697 12.0721 47.992 12.6671C47.339 13.2161 46.411 13.4911 45.209 13.4911C44.613 13.4911 44.103 13.4651 43.676 13.4131V6.98207C44.233 6.89207 44.833 6.84607 45.481 6.84607C46.626 6.84607 47.489 7.09507 48.071 7.59307C48.723 8.15607 49.05 8.96107 49.05 10.0091ZM47.945 10.0381C47.945 9.27507 47.743 8.69007 47.339 8.28207C46.935 7.87507 46.345 7.67107 45.568 7.67107C45.238 7.67107 44.957 7.69307 44.724 7.73907V12.6281C44.853 12.6481 45.089 12.6571 45.432 12.6571C46.234 12.6571 46.853 12.4341 47.289 11.9881C47.725 11.5421 47.945 10.8921 47.945 10.0381Z" fill="white"/>
<path d="M54.909 11.037C54.909 11.762 54.702 12.356 54.288 12.822C53.854 13.301 53.279 13.54 52.561 13.54C51.869 13.54 51.318 13.311 50.907 12.851C50.497 12.392 50.292 11.813 50.292 11.115C50.292 10.385 50.503 9.78605 50.927 9.32105C51.351 8.85605 51.921 8.62305 52.639 8.62305C53.331 8.62305 53.887 8.85205 54.308 9.31105C54.708 9.75705 54.909 10.333 54.909 11.037ZM53.822 11.071C53.822 10.636 53.728 10.263 53.541 9.95205C53.321 9.57605 53.008 9.38805 52.601 9.38805C52.18 9.38805 51.86 9.57605 51.64 9.95205C51.452 10.263 51.359 10.642 51.359 11.09C51.359 11.525 51.453 11.898 51.64 12.209C51.867 12.585 52.183 12.773 52.591 12.773C52.991 12.773 53.305 12.582 53.531 12.199C53.725 11.882 53.822 11.506 53.822 11.071Z" fill="white"/>
<path d="M62.765 8.71899L61.29 13.433H60.33L59.719 11.386C59.564 10.875 59.438 10.367 59.34 9.86299H59.321C59.23 10.381 59.104 10.888 58.942 11.386L58.293 13.433H57.322L55.935 8.71899H57.012L57.545 10.96C57.674 11.49 57.78 11.995 57.865 12.473H57.884C57.962 12.079 58.091 11.577 58.273 10.97L58.942 8.71999H59.796L60.437 10.922C60.592 11.459 60.718 11.976 60.815 12.474H60.844C60.915 11.989 61.022 11.472 61.164 10.922L61.736 8.71999H62.765V8.71899Z" fill="white"/>
<path d="M68.198 13.433H67.15V10.733C67.15 9.901 66.834 9.48499 66.2 9.48499C65.889 9.48499 65.638 9.599 65.443 9.828C65.25 10.057 65.152 10.327 65.152 10.636V13.432H64.104V10.066C64.104 9.652 64.091 9.203 64.066 8.717H64.987L65.036 9.454H65.065C65.187 9.225 65.369 9.036 65.608 8.885C65.892 8.709 66.21 8.62 66.558 8.62C66.998 8.62 67.364 8.762 67.655 9.047C68.017 9.396 68.198 9.917 68.198 10.609V13.433Z" fill="white"/>
<path d="M71.088 13.433H70.041V6.55603H71.088V13.433Z" fill="white"/>
<path d="M77.258 11.037C77.258 11.762 77.051 12.356 76.637 12.822C76.203 13.301 75.627 13.54 74.91 13.54C74.217 13.54 73.666 13.311 73.256 12.851C72.846 12.392 72.641 11.813 72.641 11.115C72.641 10.385 72.852 9.78605 73.276 9.32105C73.7 8.85605 74.27 8.62305 74.987 8.62305C75.68 8.62305 76.235 8.85205 76.657 9.31105C77.057 9.75705 77.258 10.333 77.258 11.037ZM76.17 11.071C76.17 10.636 76.076 10.263 75.889 9.95205C75.67 9.57605 75.356 9.38805 74.95 9.38805C74.528 9.38805 74.208 9.57605 73.989 9.95205C73.801 10.263 73.708 10.642 73.708 11.09C73.708 11.525 73.802 11.898 73.989 12.209C74.216 12.585 74.532 12.773 74.94 12.773C75.34 12.773 75.653 12.582 75.879 12.199C76.074 11.882 76.17 11.506 76.17 11.071Z" fill="white"/>
<path d="M82.33 13.433H81.389L81.311 12.89H81.282C80.96 13.323 80.501 13.54 79.905 13.54C79.46 13.54 79.1 13.397 78.829 13.113C78.583 12.855 78.46 12.534 78.46 12.153C78.46 11.577 78.7 11.138 79.183 10.834C79.665 10.53 80.343 10.381 81.216 10.388V10.3C81.216 9.67905 80.89 9.36905 80.237 9.36905C79.772 9.36905 79.362 9.48605 79.008 9.71805L78.795 9.03005C79.233 8.75905 79.774 8.62305 80.412 8.62305C81.644 8.62305 82.262 9.27305 82.262 10.573V12.309C82.262 12.78 82.285 13.155 82.33 13.433ZM81.242 11.813V11.086C80.086 11.066 79.508 11.383 79.508 12.036C79.508 12.282 79.574 12.466 79.709 12.589C79.844 12.712 80.016 12.773 80.221 12.773C80.451 12.773 80.666 12.7 80.862 12.555C81.059 12.409 81.18 12.224 81.225 11.997C81.236 11.946 81.242 11.884 81.242 11.813Z" fill="white"/>
<path d="M88.285 13.433H87.355L87.306 12.676H87.277C86.98 13.252 86.474 13.54 85.763 13.54C85.195 13.54 84.722 13.317 84.347 12.871C83.972 12.425 83.785 11.846 83.785 11.135C83.785 10.372 83.988 9.75403 84.396 9.28203C84.791 8.84203 85.275 8.62203 85.851 8.62203C86.484 8.62203 86.927 8.83503 87.179 9.26203H87.199V6.55603H88.248V12.163C88.248 12.622 88.26 13.045 88.285 13.433ZM87.199 11.445V10.659C87.199 10.523 87.189 10.413 87.17 10.329C87.111 10.077 86.984 9.86503 86.791 9.69403C86.596 9.52303 86.361 9.43703 86.09 9.43703C85.699 9.43703 85.393 9.59203 85.168 9.90303C84.945 10.214 84.832 10.611 84.832 11.096C84.832 11.562 84.939 11.94 85.154 12.231C85.381 12.541 85.687 12.696 86.07 12.696C86.414 12.696 86.689 12.567 86.898 12.308C87.1 12.069 87.199 11.781 87.199 11.445Z" fill="white"/>
<path d="M97.248 11.037C97.248 11.762 97.041 12.356 96.627 12.822C96.193 13.301 95.619 13.54 94.9 13.54C94.209 13.54 93.658 13.311 93.246 12.851C92.836 12.392 92.631 11.813 92.631 11.115C92.631 10.385 92.842 9.78605 93.266 9.32105C93.69 8.85605 94.26 8.62305 94.979 8.62305C95.67 8.62305 96.227 8.85205 96.647 9.31105C97.047 9.75705 97.248 10.333 97.248 11.037ZM96.162 11.071C96.162 10.636 96.068 10.263 95.881 9.95205C95.66 9.57605 95.348 9.38805 94.94 9.38805C94.52 9.38805 94.2 9.57605 93.979 9.95205C93.791 10.263 93.698 10.642 93.698 11.09C93.698 11.525 93.792 11.898 93.979 12.209C94.206 12.585 94.522 12.773 94.93 12.773C95.33 12.773 95.645 12.582 95.871 12.199C96.064 11.882 96.162 11.506 96.162 11.071Z" fill="white"/>
<path d="M102.883 13.433H101.836V10.733C101.836 9.901 101.52 9.48499 100.885 9.48499C100.574 9.48499 100.323 9.599 100.129 9.828C99.935 10.057 99.838 10.327 99.838 10.636V13.432H98.789V10.066C98.789 9.652 98.777 9.203 98.752 8.717H99.672L99.721 9.454H99.75C99.873 9.225 100.055 9.036 100.293 8.885C100.578 8.709 100.895 8.62 101.244 8.62C101.683 8.62 102.049 8.762 102.34 9.047C102.703 9.396 102.883 9.917 102.883 10.609V13.433Z" fill="white"/>
<path d="M109.936 9.50404H108.782V11.794C108.782 12.376 108.987 12.667 109.393 12.667C109.581 12.667 109.737 12.651 109.86 12.618L109.887 13.413C109.68 13.491 109.408 13.53 109.073 13.53C108.659 13.53 108.337 13.404 108.104 13.152C107.87 12.9 107.754 12.476 107.754 11.881V9.50404H107.065V8.71904H107.754V7.85504L108.781 7.54504V8.71804H109.935V9.50404H109.936Z" fill="white"/>
<path d="M115.484 13.433H114.435V10.753C114.435 9.90803 114.119 9.48503 113.486 9.48503C113 9.48503 112.668 9.73003 112.486 10.22C112.455 10.323 112.437 10.449 112.437 10.597V13.432H111.39V6.55603H112.437V9.39703H112.457C112.787 8.88003 113.26 8.62203 113.873 8.62203C114.307 8.62203 114.666 8.76403 114.951 9.04903C115.306 9.40403 115.484 9.93203 115.484 10.63V13.433Z" fill="white"/>
<path d="M121.207 10.853C121.207 11.041 121.193 11.199 121.168 11.328H118.025C118.039 11.794 118.189 12.149 118.48 12.395C118.746 12.615 119.089 12.725 119.509 12.725C119.974 12.725 120.398 12.651 120.78 12.502L120.944 13.23C120.497 13.424 119.971 13.521 119.362 13.521C118.632 13.521 118.057 13.306 117.641 12.876C117.223 12.446 117.016 11.869 117.016 11.145C117.016 10.434 117.209 9.84201 117.598 9.37001C118.004 8.86601 118.553 8.61401 119.246 8.61401C119.924 8.61401 120.439 8.86601 120.787 9.37001C121.068 9.77001 121.207 10.265 121.207 10.853ZM120.207 10.582C120.215 10.271 120.146 10.003 120.004 9.77701C119.822 9.48601 119.545 9.34001 119.17 9.34001C118.828 9.34001 118.549 9.48201 118.336 9.76701C118.162 9.99401 118.059 10.265 118.025 10.582H120.207Z" fill="white"/>
</g>
<defs>
<clipPath id="clip0_237_1172">
<rect width="135" height="40" fill="white"/>
</clipPath>
</defs>
</svg>
