<svg width="136" height="40" viewBox="0 0 136 40" fill="none" xmlns="http://www.w3.org/2000/svg">
<g clip-path="url(#clip0_237_1160)">
<path fill-rule="evenodd" clip-rule="evenodd" d="M130.534 40H5.02244C2.25436 40 0 37.7456 0 35V5C0 2.24439 2.25436 0 5.02244 0H130.534C133.299 0 135.556 2.24439 135.556 5V35C135.556 37.7456 133.299 40 130.534 40Z" fill="black"/>
<path fill-rule="evenodd" clip-rule="evenodd" d="M130.534 0.800499C132.855 0.800499 134.756 2.68828 134.756 5V35C134.756 37.3117 132.868 39.1995 130.534 39.1995H5.02244C2.70075 39.1995 0.800499 37.3117 0.800499 35V5C0.800499 2.68828 2.68828 0.800499 5.02244 0.800499H130.534ZM130.534 0H5.02244C2.25436 0 0 2.25436 0 5V35C0 37.7556 2.25436 40 5.02244 40H130.534C133.299 40 135.556 37.7556 135.556 35V5C135.556 2.25436 133.299 0 130.534 0Z" fill="#A6A6A6"/>
<path d="M71.4115 13.232C70.5062 13.232 69.7431 12.9153 69.1397 12.2918C68.5411 11.6858 68.207 10.8504 68.2219 9.99755C68.2219 9.08732 68.5312 8.31675 69.1397 7.70577C69.7406 7.08233 70.5037 6.76562 71.409 6.76562C72.3042 6.76562 73.0673 7.08233 73.6808 7.70577C74.2893 8.3367 74.5985 9.10727 74.5985 9.99755C74.5885 10.9103 74.2793 11.6808 73.6808 12.2893C73.0798 12.9177 72.3167 13.232 71.4115 13.232ZM44.4763 13.232C43.591 13.232 42.8229 12.9202 42.1945 12.3043C41.5711 11.6908 41.2544 10.9153 41.2544 10C41.2544 9.08483 41.5711 8.30927 42.1945 7.6958C42.8105 7.07984 43.5786 6.76812 44.4763 6.76812C44.9152 6.76812 45.3416 6.8554 45.7506 7.03246C46.1521 7.20453 46.4788 7.43894 46.7207 7.72572L46.7805 7.79804L46.1047 8.46139L46.0349 8.37909C45.6534 7.92523 45.1421 7.70328 44.4663 7.70328C43.8628 7.70328 43.3367 7.91774 42.9027 8.34169C42.4663 8.76812 42.2444 9.32672 42.2444 10.0025C42.2444 10.6783 42.4663 11.2369 42.9027 11.6634C43.3367 12.0873 43.8628 12.3018 44.4663 12.3018C45.1097 12.3018 45.6509 12.0873 46.0723 11.6634C46.3217 11.414 46.4763 11.0649 46.5312 10.6235H44.3641V9.69081H47.4613L47.4738 9.7756C47.4963 9.93271 47.5187 10.0948 47.5187 10.2444C47.5187 11.1048 47.2594 11.8005 46.7456 12.3143C46.1621 12.9227 45.399 13.232 44.4763 13.232ZM80.2893 13.0998H79.3342L76.409 8.41899L76.4339 9.26188V13.0973H75.4788V6.90029H76.5686L76.5985 6.94767L79.3491 11.3566L79.3242 10.5162V6.90029H80.2893V13.0998ZM64.2344 13.0998H63.2668V7.83296H61.5885V6.90029H65.9102V7.83296H64.2319V13.0998H64.2344ZM60.8005 13.0998H59.8354V6.90029H60.8005V13.0998ZM55.3766 13.0998H54.4115V7.83296H52.7332V6.90029H57.0549V7.83296H55.3766V13.0998ZM52.1222 13.0898H48.4214V6.90029H52.1222V7.83296H49.389V9.5337H51.8554V10.4564H49.389V12.1571H52.1222V13.0898ZM69.8479 11.6509C70.2793 12.0823 70.803 12.2993 71.4115 12.2993C72.0374 12.2993 72.5486 12.0873 72.9751 11.6509C73.399 11.227 73.6135 10.6709 73.6135 10C73.6135 9.32922 73.399 8.77061 72.9776 8.34917C72.5461 7.91774 72.0199 7.70079 71.414 7.70079C70.788 7.70079 70.2768 7.91276 69.8529 8.34917C69.4289 8.77311 69.2145 9.32922 69.2145 10C69.2145 10.6709 69.4264 11.2295 69.8479 11.6509Z" fill="white"/>
<path fill-rule="evenodd" clip-rule="evenodd" d="M68.1322 21.7557C65.7756 21.7557 63.8653 23.5437 63.8653 26.01C63.8653 28.4539 65.788 30.2644 68.1322 30.2644C70.4888 30.2644 72.399 28.4639 72.399 26.01C72.399 23.5437 70.4888 21.7557 68.1322 21.7557ZM68.1322 28.5786C66.8429 28.5786 65.7332 27.5113 65.7332 26.0001C65.7332 24.4664 66.8454 23.4215 68.1322 23.4215C69.4214 23.4215 70.5312 24.4664 70.5312 26.0001C70.5337 27.5212 69.4214 28.5786 68.1322 28.5786ZM58.8229 21.7557C56.4663 21.7557 54.5561 23.5437 54.5561 26.01C54.5561 28.4539 56.4788 30.2644 58.8229 30.2644C61.1796 30.2644 63.0898 28.4639 63.0898 26.01C63.0898 23.5437 61.1771 21.7557 58.8229 21.7557ZM58.8229 28.5786C57.5337 28.5786 56.4239 27.5113 56.4239 26.0001C56.4239 24.4664 57.5362 23.4215 58.8229 23.4215C60.1122 23.4215 61.2219 24.4664 61.2219 26.0001C61.2219 27.5212 60.1122 28.5786 58.8229 28.5786ZM47.7456 23.0549V24.8554H52.0673C51.9352 25.8654 51.601 26.611 51.0898 27.1222C50.4564 27.7557 49.4788 28.4439 47.7556 28.4439C45.0997 28.4439 43.0224 26.2993 43.0224 23.6434C43.0224 20.9876 45.0997 18.8429 47.7556 18.8429C49.1895 18.8429 50.2344 19.409 51.01 20.1322L52.2868 18.8554C51.2095 17.823 49.7756 17.0325 47.7656 17.0325C44.1222 17.0325 41.0648 20.0001 41.0648 23.6335C41.0648 27.2769 44.1197 30.2345 47.7656 30.2345C49.7332 30.2345 51.2095 29.5911 52.3766 28.3791C53.5661 27.1896 53.9426 25.5113 53.9426 24.1572C53.9426 23.7357 53.9102 23.3567 53.8429 23.035H47.7431C47.7456 23.0325 47.7456 23.0549 47.7456 23.0549ZM93.0549 24.4564C92.6983 23.5013 91.6209 21.7457 89.4115 21.7457C87.2219 21.7457 85.4015 23.4689 85.4015 26.0001C85.4015 28.3891 87.202 30.2544 89.6234 30.2544C91.5686 30.2544 92.7007 29.0649 93.1671 28.3666L91.7232 27.3991C91.2444 28.1098 90.5786 28.5761 89.6334 28.5761C88.6783 28.5761 88.01 28.1422 87.5661 27.2868L93.2544 24.9302C93.2544 24.9327 93.0549 24.4564 93.0549 24.4564ZM87.2544 25.8779C87.2095 24.2345 88.5312 23.3991 89.4763 23.3991C90.2219 23.3991 90.8429 23.7656 91.0549 24.2993L87.2544 25.8779ZM82.6334 30.0001H84.5012V17.5013H82.6334V30.0001ZM79.5661 22.7008H79.4987C79.0773 22.1996 78.2768 21.7457 77.2544 21.7457C75.1322 21.7457 73.1771 23.6135 73.1771 26.0125C73.1771 28.4015 75.1222 30.2469 77.2544 30.2469C78.2643 30.2469 79.0773 29.7906 79.4987 29.2794H79.5661V29.8903C79.5661 31.5138 78.6982 32.3891 77.2992 32.3891C76.1546 32.3891 75.4439 31.5661 75.1546 30.8779L73.5312 31.5562C73.9975 32.6784 75.2419 34.0674 77.2968 34.0674C79.4863 34.0674 81.3416 32.7781 81.3416 29.6335V22.0001H79.5761V22.7008C79.5786 22.7008 79.5661 22.7008 79.5661 22.7008ZM77.4214 28.5786C76.1322 28.5786 75.0549 27.5013 75.0549 26.0125C75.0549 24.5113 76.1322 23.424 77.4214 23.424C78.6983 23.424 79.6883 24.5237 79.6883 26.0125C79.7007 27.5013 78.7007 28.5786 77.4214 28.5786ZM101.8 17.5013H97.3342V30.0001H99.202V25.2669H101.803C103.87 25.2669 105.903 23.7681 105.903 21.3891C105.903 19.01 103.878 17.5013 101.8 17.5013ZM101.855 23.5212H99.1995V19.232H101.855C103.254 19.232 104.045 20.3866 104.045 21.3766C104.045 22.3567 103.244 23.5212 101.855 23.5212ZM113.389 21.7332C112.032 21.7332 110.633 22.3342 110.055 23.6434L111.711 24.3317C112.067 23.6434 112.721 23.409 113.411 23.409C114.379 23.409 115.357 23.9876 115.379 25.02V25.1522C115.045 24.9626 114.312 24.6734 113.434 24.6734C111.646 24.6734 109.833 25.6509 109.833 27.4838C109.833 29.1621 111.299 30.2395 112.933 30.2395C114.187 30.2395 114.878 29.6734 115.309 29.0175H115.377V29.9851H117.177V25.1971C117.177 22.9676 115.521 21.7332 113.389 21.7332ZM113.155 28.5786C112.544 28.5786 111.688 28.2794 111.688 27.5113C111.688 26.5437 112.756 26.1771 113.666 26.1771C114.489 26.1771 114.878 26.3542 115.367 26.5986C115.232 27.7207 114.284 28.5686 113.155 28.5786ZM123.746 22.0001L121.601 27.4215H121.534L119.312 22.0001H117.302L120.636 29.5786L118.736 33.7906H120.681L125.81 22.0001H123.746ZM106.933 30.0001H108.8V17.5013H106.933V30.0001Z" fill="white"/>
<path fill-rule="evenodd" clip-rule="evenodd" d="M10.4339 7.53364C10.1446 7.84536 9.97755 8.32167 9.97755 8.94511V31.0573C9.97755 31.6808 10.1446 32.1571 10.4439 32.4563L10.5212 32.5237L22.9102 20.1346V19.8578L10.5112 7.46631L10.4339 7.53364Z" fill="url(#paint0_linear_237_1160)"/>
<path fill-rule="evenodd" clip-rule="evenodd" d="M27.0324 24.2768L22.9003 20.1446V19.8553L27.0324 15.7231L27.1222 15.778L32.01 18.5561C33.409 19.3441 33.409 20.6458 32.01 21.4438L27.1222 24.2219L27.0324 24.2768Z" fill="url(#paint1_linear_237_1160)"/>
<path fill-rule="evenodd" clip-rule="evenodd" d="M27.1222 24.2219L22.9002 20L10.4339 32.4663C10.8903 32.9551 11.6559 33.01 12.5112 32.5337L27.1222 24.2219Z" fill="url(#paint2_linear_237_1160)"/>
<path fill-rule="evenodd" clip-rule="evenodd" d="M27.1222 15.7781L12.5112 7.47882C11.6559 6.99004 10.8878 7.05737 10.4339 7.54615L22.9002 20L27.1222 15.7781Z" fill="url(#paint3_linear_237_1160)"/>
<path opacity="0.2" fill-rule="evenodd" clip-rule="evenodd" d="M27.0324 24.1322L12.5212 32.3766C11.7107 32.8429 10.9875 32.8105 10.5212 32.3866L10.4439 32.4639L10.5212 32.5312C10.9875 32.9527 11.7107 32.9876 12.5212 32.5212L27.1322 24.222L27.0324 24.1322Z" fill="black"/>
<path opacity="0.12" fill-rule="evenodd" clip-rule="evenodd" d="M32.01 21.2993L27.02 24.1322L27.1097 24.2219L31.9975 21.4439C32.6983 21.0449 33.0424 20.5212 33.0424 20C33 20.4788 32.6434 20.9327 32.01 21.2993Z" fill="black"/>
<path opacity="0.25" fill-rule="evenodd" clip-rule="evenodd" d="M12.5112 7.62342L32.01 18.7007C32.6434 19.0573 33 19.5237 33.0549 20C33.0549 19.4788 32.7107 18.9551 32.01 18.5561L12.5112 7.47878C11.1122 6.67828 9.97755 7.34661 9.97755 8.94511V9.08975C9.97755 7.48875 11.1122 6.83289 12.5112 7.62342Z" fill="white"/>
</g>
<defs>
<linearGradient id="paint0_linear_237_1160" x1="21.7989" y1="8.70654" x2="1.95386" y2="13.9943" gradientUnits="userSpaceOnUse">
<stop stop-color="#00A0FF"/>
<stop offset="0.00657" stop-color="#00A1FF"/>
<stop offset="0.2601" stop-color="#00BEFF"/>
<stop offset="0.5122" stop-color="#00D2FF"/>
<stop offset="0.7604" stop-color="#00DFFF"/>
<stop offset="1" stop-color="#00E3FF"/>
</linearGradient>
<linearGradient id="paint1_linear_237_1160" x1="33.8344" y1="20" x2="9.63754" y2="20" gradientUnits="userSpaceOnUse">
<stop stop-color="#FFE000"/>
<stop offset="0.4087" stop-color="#FFBD00"/>
<stop offset="0.7754" stop-color="#FFA500"/>
<stop offset="1" stop-color="#FF9C00"/>
</linearGradient>
<linearGradient id="paint2_linear_237_1160" x1="24.8265" y1="22.2973" x2="8.89493" y2="49.1114" gradientUnits="userSpaceOnUse">
<stop stop-color="#FF3A44"/>
<stop offset="1" stop-color="#C31162"/>
</linearGradient>
<linearGradient id="paint3_linear_237_1160" x1="7.29476" y1="0.178805" x2="14.4024" y2="12.1544" gradientUnits="userSpaceOnUse">
<stop stop-color="#32A071"/>
<stop offset="0.0685" stop-color="#2DA771"/>
<stop offset="0.4762" stop-color="#15CF74"/>
<stop offset="0.8009" stop-color="#06E775"/>
<stop offset="1" stop-color="#00F076"/>
</linearGradient>
<clipPath id="clip0_237_1160">
<rect width="135.556" height="40" fill="white"/>
</clipPath>
</defs>
</svg>
